<svg xmlns="http://www.w3.org/2000/svg" width="46" height="46" fill="none"><path fill="#fff" d="M16.56 32.16a8.05 8.05 0 0 0 2.79 1.784c1.165.435 2.4.649 3.642.632a10.051 10.051 0 0 0 3.645-.632 8.115 8.115 0 0 0 2.794-1.782 7.744 7.744 0 0 0 1.769-2.71 9.229 9.229 0 0 0 .607-3.372V14.02h-4.973v12.06a5.486 5.486 0 0 1-.27 1.775c-.16.474-.416.91-.753 1.278-.33.352-.733.626-1.182.803a4.743 4.743 0 0 1-3.276 0 3.163 3.163 0 0 1-1.17-.805 3.68 3.68 0 0 1-.752-1.29 5.391 5.391 0 0 1-.273-1.774V14.02h-4.967v12.06a9.198 9.198 0 0 0 .607 3.372 7.772 7.772 0 0 0 1.761 2.712"/><path fill="#fff" d="M23 0A22.874 22.874 0 0 0 6.79 6.672 23.09 23.09 0 0 0 0 22.896c0 3.035.596 6.04 1.752 8.843a23.115 23.115 0 0 0 4.987 7.496 22.993 22.993 0 0 0 7.463 5.008A22.907 22.907 0 0 0 23.004 46a22.946 22.946 0 0 0 16.26-6.768A23.163 23.163 0 0 0 46 22.896a23.09 23.09 0 0 0-6.79-16.224A22.874 22.874 0 0 0 23 0Zm0 40.951a17.932 17.932 0 0 1-12.66-5.406A18.101 18.101 0 0 1 5.195 22.73a18.098 18.098 0 0 1 5.38-12.719 17.929 17.929 0 0 1 12.757-5.17 17.932 17.932 0 0 1 12.602 5.347 18.1 18.1 0 0 1 5.205 12.71 18.203 18.203 0 0 1-5.353 12.795A18.032 18.032 0 0 1 23 40.952Z"/></svg>